<svg version="1.1" id="Layer_1" xmlns="http://www.w3.org/2000/svg" xmlns:xlink="http://www.w3.org/1999/xlink" x="0px" y="0px"
	 width="100%" viewBox="0 0 331 227" enable-background="new 0 0 331 227" xml:space="preserve">
<path fill="#FFFEFE" opacity="1.000000" stroke="none" 
	d="
M12.000000,228.000000 
	C8.334789,228.000000 4.669579,228.000000 1.003276,228.000000 
	C1.002184,152.364838 1.002184,76.729668 1.002184,1.047253 
	C111.257996,1.047253 221.516022,1.047253 331.887024,1.047253 
	C331.887024,76.561157 331.887024,152.122528 331.887024,228.000000 
	C230.312653,228.000000 128.624985,228.000000 26.576599,227.677139 
	C28.708303,225.443039 30.954885,223.002914 33.735027,221.710678 
	C46.848129,215.615417 59.821262,209.051987 73.371651,204.097885 
	C105.589012,192.318985 138.650848,183.278885 172.278702,176.475922 
	C183.498718,174.206085 194.884430,172.680344 206.248642,171.243546 
	C209.699341,170.807281 213.331787,171.808334 216.880981,172.151062 
	C216.876419,172.757629 216.871857,173.364212 216.867294,173.970779 
	C214.884933,174.676865 212.926544,175.461197 210.916504,176.076828 
	C192.792694,181.627548 174.580017,186.907455 156.590012,192.860886 
	C152.478119,194.221619 149.125168,197.875641 145.422913,200.474197 
	C148.355743,204.332840 150.978806,208.484665 154.291000,211.984238 
	C159.825623,217.831955 165.296021,218.451309 173.784531,215.305573 
	C197.293106,206.593628 221.429657,199.424240 245.629318,192.778885 
	C263.924469,187.754929 282.798828,185.243637 301.909149,185.920334 
	C309.755798,186.198212 317.446381,187.117630 324.128326,192.033646 
	C325.065369,192.723038 327.862671,192.289307 328.774292,191.364960 
	C332.759766,187.323837 331.142334,181.333252 325.798004,179.524612 
	C323.916260,178.887802 321.976135,178.355530 320.020996,178.013870 
	C297.376556,174.056671 274.904663,175.973892 252.657333,180.718430 
	C225.254410,186.562469 198.770828,195.498016 172.722595,205.754547 
	C171.123428,206.384216 169.395233,206.686188 167.727081,207.140610 
	C167.503448,206.548767 167.279816,205.956909 167.056183,205.365067 
	C187.959076,196.816544 208.861954,188.268036 230.013702,179.617737 
	C225.841980,171.469223 219.534760,166.760406 211.645416,166.267548 
	C199.601044,165.515137 187.282135,165.040344 175.398087,166.711411 
	C152.058472,169.993332 128.867065,174.480194 105.745377,179.121368 
	C78.835564,184.522919 52.057014,190.660919 26.354372,200.526596 
	C19.896454,203.005402 13.689098,206.472137 7.923334,210.319275 
	C2.761186,213.763641 2.830254,217.490463 6.821621,222.026932 
	C8.562212,224.005219 10.274736,226.008224 12.000000,228.000000 
M321.979919,71.652321 
	C320.947388,64.423485 320.401672,57.081139 318.749817,49.996708 
	C316.985413,42.429550 312.693726,40.585617 305.204498,42.834328 
	C291.962830,46.810253 282.707306,55.508839 276.419861,67.475639 
	C267.185364,85.051567 265.231567,104.191757 264.955109,123.635117 
	C264.837067,131.937103 271.608551,136.106720 278.943268,131.890808 
	C282.030670,130.116211 284.953827,127.528313 287.037292,124.648598 
	C290.923920,119.276558 294.241699,113.479309 297.606720,107.747765 
	C300.312622,103.138863 302.738953,98.365814 305.913055,92.516121 
	C307.091187,104.723984 307.988403,115.482338 309.242981,126.198845 
	C309.661194,129.770920 310.509888,133.466217 312.041046,136.687225 
	C313.688416,140.152695 317.169556,141.300354 320.973236,140.378525 
	C324.963135,139.411545 325.354919,136.271957 325.038116,132.900238 
	C324.820740,130.586426 324.278351,128.294281 324.178833,125.979660 
	C323.414093,108.192017 322.722137,90.401253 321.979919,71.652321 
M37.889580,55.078949 
	C34.236336,57.114983 30.583092,59.151016 26.158909,61.616711 
	C25.989233,58.892220 25.785187,57.127609 25.785229,55.363010 
	C25.785442,46.206444 26.190140,37.032101 25.729540,27.900492 
	C25.483545,23.023546 24.178854,18.084055 22.604574,13.425353 
	C21.252855,9.425272 18.110071,7.551062 13.479569,8.667454 
	C8.668951,9.827271 8.990468,13.275820 9.195383,16.857822 
	C9.783689,27.141684 10.840796,37.427059 10.818609,47.709908 
	C10.794171,59.035770 13.426389,70.566040 8.978603,81.698914 
	C8.640954,82.544060 9.434308,83.855240 9.738116,84.939659 
	C10.470464,87.553688 11.821935,90.151176 11.868182,92.773941 
	C12.094168,105.589966 11.999060,118.412155 11.964519,131.232025 
	C11.950719,136.353439 15.427860,138.305038 19.432657,140.048798 
	C23.373152,141.764526 25.106302,139.185669 27.203335,136.705643 
	C34.073685,128.580475 41.393520,120.813225 47.923878,112.428108 
	C56.816021,101.010391 65.479340,89.323395 68.547562,74.678658 
	C70.476402,65.472267 66.425804,57.452885 57.355495,55.349182 
	C51.424839,53.973671 44.938915,54.992226 37.889580,55.078949 
M104.307991,109.671471 
	C102.291687,113.664085 100.662117,117.929955 98.109024,121.543274 
	C96.657883,123.597023 93.513878,125.923042 91.469246,125.645309 
	C89.689468,125.403557 87.580009,121.872391 86.997795,119.461166 
	C83.297768,104.137810 85.196732,89.088341 90.509613,74.463188 
	C91.940407,70.524521 92.185036,66.914673 88.878860,64.594482 
	C86.480362,62.911282 82.815102,61.795586 79.997849,62.236423 
	C75.760963,62.899406 73.377777,66.315002 73.252716,70.914131 
	C72.886597,84.377869 72.127304,97.842293 72.200706,111.302757 
	C72.253227,120.932884 74.371910,130.108963 82.224564,136.962418 
	C89.420731,143.242905 98.493889,142.083771 103.345398,133.929382 
	C104.819740,131.451309 105.964394,128.777069 107.260048,126.192673 
	C109.177162,131.316818 110.231079,136.284485 110.925987,141.301895 
	C111.629814,146.383682 114.979782,147.219009 119.197037,147.096283 
	C123.612389,146.967819 124.207451,144.021408 124.093834,140.555008 
	C123.756233,130.255051 123.375206,119.956474 123.053459,109.656044 
	C122.627686,96.025604 122.260788,82.393288 121.808563,68.763771 
	C121.765533,67.466820 121.500595,66.095482 120.987022,64.911171 
	C119.419197,61.295673 117.067261,58.618702 112.606567,59.434402 
	C108.028473,60.271580 108.974121,63.952671 109.016747,66.975349 
	C109.216560,81.144203 108.847542,95.242073 104.307991,109.671471 
M187.834671,93.509132 
	C180.317093,94.486443 172.795670,95.435379 165.283356,96.451546 
	C160.670502,97.075516 156.071594,97.802391 151.466415,98.483063 
	C151.275711,97.903008 151.085007,97.322960 150.894287,96.742912 
	C159.951019,85.727257 169.449295,75.259392 185.428268,74.874977 
	C189.744614,74.771133 191.699646,73.330368 191.057800,68.970253 
	C190.445633,64.811615 186.146103,62.515076 180.366364,63.488205 
	C159.678970,66.971329 146.157104,80.927437 133.857544,96.194374 
	C129.811081,101.217079 131.946548,106.241539 138.248444,108.971024 
	C145.291321,112.021439 152.681824,112.387939 160.210907,110.724968 
	C165.639038,109.526054 171.125473,108.591110 178.041611,107.257790 
	C176.535706,110.222145 175.981857,111.940956 174.932419,113.267776 
	C170.711380,118.604416 166.268646,123.765556 162.041702,129.097702 
	C158.825256,133.155136 159.094833,136.233826 162.611557,138.993805 
	C166.353745,141.930740 169.715012,141.359863 172.742249,137.299957 
	C175.919922,133.038300 179.107269,128.783798 182.307983,124.539421 
	C186.509415,118.968018 191.172836,113.684692 194.827347,107.776329 
	C199.455887,100.293243 196.895981,95.129089 187.834671,93.509132 
M225.181030,72.812714 
	C224.174438,73.939034 223.167862,75.065353 221.447037,76.990860 
	C220.901505,71.144417 220.522354,66.566582 220.034714,62.000320 
	C219.550034,57.461651 215.904663,54.885796 210.828690,54.993229 
	C205.549652,55.104961 205.617523,58.508053 205.990540,62.239204 
	C206.668198,69.017410 207.439453,75.787529 208.018234,82.574104 
	C209.416580,98.970726 210.446243,115.407158 212.327209,131.746658 
	C212.671021,134.733124 215.843689,138.054794 218.589890,139.942322 
	C222.308395,142.498169 226.750977,139.532745 226.788483,134.900299 
	C226.820709,130.920578 226.930328,126.825409 226.103806,122.974899 
	C222.524902,106.301735 227.091278,91.871597 238.215637,79.544586 
	C243.975754,73.161743 250.647659,67.574165 257.132141,61.883102 
	C260.918701,58.559879 262.141327,55.139221 259.842529,52.013786 
	C257.133240,48.330215 251.380600,47.336349 248.156158,50.372204 
	C240.536911,57.545780 233.110336,64.923996 225.181030,72.812714 
z"/>
<path fill="#F9A284" opacity="1.000000" stroke="none" 
	d="
M12.464650,228.000000 
	C10.274736,226.008224 8.562212,224.005219 6.821621,222.026932 
	C2.830254,217.490463 2.761186,213.763641 7.923334,210.319275 
	C13.689098,206.472137 19.896454,203.005402 26.354372,200.526596 
	C52.057014,190.660919 78.835564,184.522919 105.745377,179.121368 
	C128.867065,174.480194 152.058472,169.993332 175.398087,166.711411 
	C187.282135,165.040344 199.601044,165.515137 211.645416,166.267548 
	C219.534760,166.760406 225.841980,171.469223 230.013702,179.617737 
	C208.861954,188.268036 187.959076,196.816544 167.056183,205.365067 
	C167.279816,205.956909 167.503448,206.548767 167.727081,207.140610 
	C169.395233,206.686188 171.123428,206.384216 172.722595,205.754547 
	C198.770828,195.498016 225.254410,186.562469 252.657333,180.718430 
	C274.904663,175.973892 297.376556,174.056671 320.020996,178.013870 
	C321.976135,178.355530 323.916260,178.887802 325.798004,179.524612 
	C331.142334,181.333252 332.759766,187.323837 328.774292,191.364960 
	C327.862671,192.289307 325.065369,192.723038 324.128326,192.033646 
	C317.446381,187.117630 309.755798,186.198212 301.909149,185.920334 
	C282.798828,185.243637 263.924469,187.754929 245.629318,192.778885 
	C221.429657,199.424240 197.293106,206.593628 173.784531,215.305573 
	C165.296021,218.451309 159.825623,217.831955 154.291000,211.984238 
	C150.978806,208.484665 148.355743,204.332840 145.422913,200.474197 
	C149.125168,197.875641 152.478119,194.221619 156.590012,192.860886 
	C174.580017,186.907455 192.792694,181.627548 210.916504,176.076828 
	C212.926544,175.461197 214.884933,174.676865 216.867294,173.970779 
	C216.871857,173.364212 216.876419,172.757629 216.880981,172.151062 
	C213.331787,171.808334 209.699341,170.807281 206.248642,171.243546 
	C194.884430,172.680344 183.498718,174.206085 172.278702,176.475922 
	C138.650848,183.278885 105.589012,192.318985 73.371651,204.097885 
	C59.821262,209.051987 46.848129,215.615417 33.735027,221.710678 
	C30.954885,223.002914 28.708303,225.443039 26.107943,227.677139 
	C21.643101,228.000000 17.286201,228.000000 12.464650,228.000000 
z"/>
<path fill="#F9A183" opacity="1.000000" stroke="none" 
	d="
M321.993774,72.131882 
	C322.722137,90.401253 323.414093,108.192017 324.178833,125.979660 
	C324.278351,128.294281 324.820740,130.586426 325.038116,132.900238 
	C325.354919,136.271957 324.963135,139.411545 320.973236,140.378525 
	C317.169556,141.300354 313.688416,140.152695 312.041046,136.687225 
	C310.509888,133.466217 309.661194,129.770920 309.242981,126.198845 
	C307.988403,115.482338 307.091187,104.723984 305.913055,92.516121 
	C302.738953,98.365814 300.312622,103.138863 297.606720,107.747765 
	C294.241699,113.479309 290.923920,119.276558 287.037292,124.648598 
	C284.953827,127.528313 282.030670,130.116211 278.943268,131.890808 
	C271.608551,136.106720 264.837067,131.937103 264.955109,123.635117 
	C265.231567,104.191757 267.185364,85.051567 276.419861,67.475639 
	C282.707306,55.508839 291.962830,46.810253 305.204498,42.834328 
	C312.693726,40.585617 316.985413,42.429550 318.749817,49.996708 
	C320.401672,57.081139 320.947388,64.423485 321.993774,72.131882 
M281.221710,102.464355 
	C281.221710,103.763748 281.221710,105.063141 281.221710,107.269913 
	C295.802979,94.033417 300.505981,77.978737 301.811523,60.006813 
	C300.649445,60.197418 300.101227,60.145275 299.733643,60.378208 
	C299.039795,60.817886 298.396942,61.370659 297.824982,61.965031 
	C291.854706,68.169289 286.973297,75.042900 285.077209,83.623444 
	C283.752441,89.618790 282.611969,95.654854 281.221710,102.464355 
z"/>
<path fill="#F9A184" opacity="1.000000" stroke="none" 
	d="
M38.295643,55.008698 
	C44.938915,54.992226 51.424839,53.973671 57.355495,55.349182 
	C66.425804,57.452885 70.476402,65.472267 68.547562,74.678658 
	C65.479340,89.323395 56.816021,101.010391 47.923878,112.428108 
	C41.393520,120.813225 34.073685,128.580475 27.203335,136.705643 
	C25.106302,139.185669 23.373152,141.764526 19.432657,140.048798 
	C15.427860,138.305038 11.950719,136.353439 11.964519,131.232025 
	C11.999060,118.412155 12.094168,105.589966 11.868182,92.773941 
	C11.821935,90.151176 10.470464,87.553688 9.738116,84.939659 
	C9.434308,83.855240 8.640954,82.544060 8.978603,81.698914 
	C13.426389,70.566040 10.794171,59.035770 10.818609,47.709908 
	C10.840796,37.427059 9.783689,27.141684 9.195383,16.857822 
	C8.990468,13.275820 8.668951,9.827271 13.479569,8.667454 
	C18.110071,7.551062 21.252855,9.425272 22.604574,13.425353 
	C24.178854,18.084055 25.483545,23.023546 25.729540,27.900492 
	C26.190140,37.032101 25.785442,46.206444 25.785229,55.363010 
	C25.785187,57.127609 25.989233,58.892220 26.158909,61.616711 
	C30.583092,59.151016 34.236336,57.114983 38.295643,55.008698 
M26.906900,101.495705 
	C26.906900,106.689697 26.906900,111.883690 26.906900,117.077682 
	C27.494619,117.207367 28.082336,117.337051 28.670055,117.466736 
	C29.932217,116.261703 31.542536,115.263504 32.400887,113.818588 
	C38.678551,103.251015 45.109268,92.752869 50.802963,81.872398 
	C52.618153,78.403618 52.782997,73.847229 52.807453,69.783104 
	C52.816383,68.298813 50.245068,65.530952 48.819012,65.509933 
	C38.864365,65.363190 26.959030,77.602318 26.910330,87.511353 
	C26.889053,91.840279 26.886124,96.169281 26.906900,101.495705 
z"/>
<path fill="#F9A184" opacity="1.000000" stroke="none" 
	d="
M104.453346,109.304779 
	C108.847542,95.242073 109.216560,81.144203 109.016747,66.975349 
	C108.974121,63.952671 108.028473,60.271580 112.606567,59.434402 
	C117.067261,58.618702 119.419197,61.295673 120.987022,64.911171 
	C121.500595,66.095482 121.765533,67.466820 121.808563,68.763771 
	C122.260788,82.393288 122.627686,96.025604 123.053459,109.656044 
	C123.375206,119.956474 123.756233,130.255051 124.093834,140.555008 
	C124.207451,144.021408 123.612389,146.967819 119.197037,147.096283 
	C114.979782,147.219009 111.629814,146.383682 110.925987,141.301895 
	C110.231079,136.284485 109.177162,131.316818 107.260048,126.192673 
	C105.964394,128.777069 104.819740,131.451309 103.345398,133.929382 
	C98.493889,142.083771 89.420731,143.242905 82.224564,136.962418 
	C74.371910,130.108963 72.253227,120.932884 72.200706,111.302757 
	C72.127304,97.842293 72.886597,84.377869 73.252716,70.914131 
	C73.377777,66.315002 75.760963,62.899406 79.997849,62.236423 
	C82.815102,61.795586 86.480362,62.911282 88.878860,64.594482 
	C92.185036,66.914673 91.940407,70.524521 90.509613,74.463188 
	C85.196732,89.088341 83.297768,104.137810 86.997795,119.461166 
	C87.580009,121.872391 89.689468,125.403557 91.469246,125.645309 
	C93.513878,125.923042 96.657883,123.597023 98.109024,121.543274 
	C100.662117,117.929955 102.291687,113.664085 104.453346,109.304779 
z"/>
<path fill="#F9A285" opacity="1.000000" stroke="none" 
	d="
M188.237549,93.623497 
	C196.895981,95.129089 199.455887,100.293243 194.827347,107.776329 
	C191.172836,113.684692 186.509415,118.968018 182.307983,124.539421 
	C179.107269,128.783798 175.919922,133.038300 172.742249,137.299957 
	C169.715012,141.359863 166.353745,141.930740 162.611557,138.993805 
	C159.094833,136.233826 158.825256,133.155136 162.041702,129.097702 
	C166.268646,123.765556 170.711380,118.604416 174.932419,113.267776 
	C175.981857,111.940956 176.535706,110.222145 178.041611,107.257790 
	C171.125473,108.591110 165.639038,109.526054 160.210907,110.724968 
	C152.681824,112.387939 145.291321,112.021439 138.248444,108.971024 
	C131.946548,106.241539 129.811081,101.217079 133.857544,96.194374 
	C146.157104,80.927437 159.678970,66.971329 180.366364,63.488205 
	C186.146103,62.515076 190.445633,64.811615 191.057800,68.970253 
	C191.699646,73.330368 189.744614,74.771133 185.428268,74.874977 
	C169.449295,75.259392 159.951019,85.727257 150.894287,96.742912 
	C151.085007,97.322960 151.275711,97.903008 151.466415,98.483063 
	C156.071594,97.802391 160.670502,97.075516 165.283356,96.451546 
	C172.795670,95.435379 180.317093,94.486443 188.237549,93.623497 
z"/>
<path fill="#F9A284" opacity="1.000000" stroke="none" 
	d="
M225.393433,72.516090 
	C233.110336,64.923996 240.536911,57.545780 248.156158,50.372204 
	C251.380600,47.336349 257.133240,48.330215 259.842529,52.013786 
	C262.141327,55.139221 260.918701,58.559879 257.132141,61.883102 
	C250.647659,67.574165 243.975754,73.161743 238.215637,79.544586 
	C227.091278,91.871597 222.524902,106.301735 226.103806,122.974899 
	C226.930328,126.825409 226.820709,130.920578 226.788483,134.900299 
	C226.750977,139.532745 222.308395,142.498169 218.589890,139.942322 
	C215.843689,138.054794 212.671021,134.733124 212.327209,131.746658 
	C210.446243,115.407158 209.416580,98.970726 208.018234,82.574104 
	C207.439453,75.787529 206.668198,69.017410 205.990540,62.239204 
	C205.617523,58.508053 205.549652,55.104961 210.828690,54.993229 
	C215.904663,54.885796 219.550034,57.461651 220.034714,62.000320 
	C220.522354,66.566582 220.901505,71.144417 221.447037,76.990860 
	C223.167862,75.065353 224.174438,73.939034 225.393433,72.516090 
z"/>
<path fill="#FFFAF9" opacity="1.000000" stroke="none" 
	d="
M281.305450,102.068542 
	C282.611969,95.654854 283.752441,89.618790 285.077209,83.623444 
	C286.973297,75.042900 291.854706,68.169289 297.824982,61.965031 
	C298.396942,61.370659 299.039795,60.817886 299.733643,60.378208 
	C300.101227,60.145275 300.649445,60.197418 301.811523,60.006813 
	C300.505981,77.978737 295.802979,94.033417 281.221710,107.269913 
	C281.221710,105.063141 281.221710,103.763748 281.305450,102.068542 
z"/>
<path fill="#FFFDFC" opacity="1.000000" stroke="none" 
	d="
M26.890881,100.996979 
	C26.886124,96.169281 26.889053,91.840279 26.910330,87.511353 
	C26.959030,77.602318 38.864365,65.363190 48.819012,65.509933 
	C50.245068,65.530952 52.816383,68.298813 52.807453,69.783104 
	C52.782997,73.847229 52.618153,78.403618 50.802963,81.872398 
	C45.109268,92.752869 38.678551,103.251015 32.400887,113.818588 
	C31.542536,115.263504 29.932217,116.261703 28.670055,117.466736 
	C28.082336,117.337051 27.494619,117.207367 26.906900,117.077682 
	C26.906900,111.883690 26.906900,106.689697 26.890881,100.996979 
z"/>
</svg>